<mxfile host="app.diagrams.net" agent="Mozilla/5.0 (Macintosh; Intel Mac OS X 10_15_7) AppleWebKit/537.36 (KHTML, like Gecko) Chrome/139.0.0.0 Safari/537.36" version="28.1.1">
  <diagram name="Sayfa -1" id="bnO6hUrvxi25U4Sx9rAc">
    <mxGraphModel grid="1" page="1" gridSize="10" guides="1" tooltips="1" connect="1" arrows="1" fold="1" pageScale="1" pageWidth="827" pageHeight="1169" math="0" shadow="0">
      <root>
        <mxCell id="0" />
        <mxCell id="1" parent="0" />
        <mxCell id="SJqSNdjK1qlvlhL7gpBt-5" style="edgeStyle=orthogonalEdgeStyle;rounded=0;orthogonalLoop=1;jettySize=auto;html=1;entryX=0.5;entryY=0;entryDx=0;entryDy=0;" edge="1" parent="1" source="SJqSNdjK1qlvlhL7gpBt-1" target="SJqSNdjK1qlvlhL7gpBt-3">
          <mxGeometry relative="1" as="geometry" />
        </mxCell>
        <mxCell id="SJqSNdjK1qlvlhL7gpBt-1" value="Başla" style="ellipse;whiteSpace=wrap;html=1;" vertex="1" parent="1">
          <mxGeometry x="350" y="210" width="120" height="80" as="geometry" />
        </mxCell>
        <mxCell id="SJqSNdjK1qlvlhL7gpBt-2" value="&lt;font style=&quot;font-size: 20px;&quot;&gt;İki Sayının Ortalamasını Alan Algoritma&lt;/font&gt;" style="text;html=1;align=center;verticalAlign=middle;whiteSpace=wrap;rounded=0;" vertex="1" parent="1">
          <mxGeometry x="200" y="60" width="400" height="120" as="geometry" />
        </mxCell>
        <mxCell id="SJqSNdjK1qlvlhL7gpBt-3" value="aSayisi" style="shape=parallelogram;perimeter=parallelogramPerimeter;whiteSpace=wrap;html=1;fixedSize=1;" vertex="1" parent="1">
          <mxGeometry x="350" y="340" width="120" height="60" as="geometry" />
        </mxCell>
        <mxCell id="SJqSNdjK1qlvlhL7gpBt-8" style="edgeStyle=orthogonalEdgeStyle;rounded=0;orthogonalLoop=1;jettySize=auto;html=1;entryX=0.5;entryY=0;entryDx=0;entryDy=0;" edge="1" parent="1" source="SJqSNdjK1qlvlhL7gpBt-4" target="SJqSNdjK1qlvlhL7gpBt-7">
          <mxGeometry relative="1" as="geometry" />
        </mxCell>
        <mxCell id="SJqSNdjK1qlvlhL7gpBt-4" value="bSayisi" style="shape=parallelogram;perimeter=parallelogramPerimeter;whiteSpace=wrap;html=1;fixedSize=1;" vertex="1" parent="1">
          <mxGeometry x="345" y="450" width="120" height="60" as="geometry" />
        </mxCell>
        <mxCell id="SJqSNdjK1qlvlhL7gpBt-6" style="edgeStyle=orthogonalEdgeStyle;rounded=0;orthogonalLoop=1;jettySize=auto;html=1;entryX=0.583;entryY=-0.05;entryDx=0;entryDy=0;entryPerimeter=0;" edge="1" parent="1" source="SJqSNdjK1qlvlhL7gpBt-3" target="SJqSNdjK1qlvlhL7gpBt-4">
          <mxGeometry relative="1" as="geometry" />
        </mxCell>
        <mxCell id="SJqSNdjK1qlvlhL7gpBt-10" style="edgeStyle=orthogonalEdgeStyle;rounded=0;orthogonalLoop=1;jettySize=auto;html=1;" edge="1" parent="1" source="SJqSNdjK1qlvlhL7gpBt-7" target="SJqSNdjK1qlvlhL7gpBt-9">
          <mxGeometry relative="1" as="geometry" />
        </mxCell>
        <mxCell id="SJqSNdjK1qlvlhL7gpBt-7" value="(aSayisi + bSayisi) /2" style="shape=document;whiteSpace=wrap;html=1;boundedLbl=1;fontSize=15;" vertex="1" parent="1">
          <mxGeometry x="320" y="560" width="170" height="80" as="geometry" />
        </mxCell>
        <mxCell id="SJqSNdjK1qlvlhL7gpBt-9" value="Son" style="ellipse;whiteSpace=wrap;html=1;" vertex="1" parent="1">
          <mxGeometry x="345" y="700" width="120" height="80" as="geometry" />
        </mxCell>
      </root>
    </mxGraphModel>
  </diagram>
</mxfile>
